<?xml version="1.0" encoding="utf-8"?>
<!-- Generator: Adobe Illustrator 22.0.1, SVG Export Plug-In . SVG Version: 6.00 Build 0)  -->
<svg version="1.1" id="Capa_1" xmlns="http://www.w3.org/2000/svg" xmlns:xlink="http://www.w3.org/1999/xlink" x="0px" y="0px"
	 viewBox="0 0 50 50" style="enable-background:new 0 0 50 50;" xml:space="preserve">
<style type="text/css">
	.st0{fill:#4F3030;}
	.st1{fill:#DF3A5C;}
</style>
<circle class="st0" cx="25" cy="25" r="25"/>
<path class="st1" d="M25,2.4c3,0,6,0.6,8.8,1.8C36.5,5.3,38.9,7,40.9,9s3.7,4.5,4.8,7.2c1.2,2.8,1.8,5.7,1.8,8.8s-0.6,6-1.8,8.8
	c-1.1,2.7-2.8,5.1-4.8,7.2c-2.1,2.1-4.5,3.7-7.2,4.8C31,46.9,28,47.5,25,47.5s-6-0.6-8.8-1.8c-2.7-1.1-5.1-2.8-7.2-4.8
	c-2.1-2.1-3.7-4.5-4.8-7.2C3,31,2.4,28,2.4,25s0.6-6,1.8-8.8C5.3,13.5,7,11.1,9,9.1s4.5-3.7,7.2-4.8C19,3,22,2.4,25,2.4 M25,0
	C11.2,0,0,11.2,0,25s11.2,25,25,25s25-11.2,25-25S38.8,0,25,0L25,0z"/>
<g>
	<path class="st1" d="M11.3,34.9v-3.5h2.6V18h-2.6v-3.5H21V18h-2.6v13.4H21v3.5H11.3z"/>
	<path class="st1" d="M33.8,32.3h-0.1c-0.1,0.4-0.3,0.8-0.6,1.2c-0.3,0.4-0.6,0.7-0.9,0.9c-0.4,0.3-0.8,0.5-1.2,0.6
		c-0.5,0.1-0.9,0.2-1.4,0.2c-2,0-3.4-0.7-4.4-2.1c-1-1.4-1.5-3.4-1.5-6c0-2.6,0.5-4.6,1.5-6c1-1.4,2.5-2.1,4.4-2.1
		c1,0,1.9,0.3,2.7,0.8c0.8,0.5,1.3,1.3,1.5,2.1h0.1v-8.9h4.3v21.7h-4.3V32.3z M31,31.7c0.8,0,1.5-0.2,2-0.6c0.5-0.4,0.8-1,0.8-1.7
		v-4.5c0-0.7-0.3-1.3-0.8-1.7c-0.5-0.4-1.2-0.6-2-0.6s-1.5,0.3-2,0.9c-0.5,0.6-0.8,1.4-0.8,2.3v2.7c0,1,0.3,1.8,0.8,2.3
		C29.5,31.4,30.1,31.7,31,31.7z"/>
</g>
</svg>
