<?xml version="1.0" encoding="utf-8"?>
<!-- Generator: Adobe Illustrator 22.0.1, SVG Export Plug-In . SVG Version: 6.00 Build 0)  -->
<svg version="1.1" id="Capa_1" xmlns="http://www.w3.org/2000/svg" xmlns:xlink="http://www.w3.org/1999/xlink" x="0px" y="0px"
	 viewBox="0 0 50 50" style="enable-background:new 0 0 50 50;" xml:space="preserve">
<style type="text/css">
	.st0{fill:#592B49;}
	.st1{fill:#DA2286;}
</style>
<g>
	<path class="st0" d="M25,48.8c-6.3,0-12.3-2.5-16.8-7s-7-10.5-7-16.8c0-6.3,2.5-12.3,7-16.8s10.5-7,16.8-7c6.3,0,12.3,2.5,16.8,7
		s7,10.5,7,16.8c0,6.3-2.5,12.3-7,16.8S31.3,48.8,25,48.8z"/>
	<path class="st1" d="M25,2.4c3,0,6,0.6,8.8,1.8C36.5,5.3,38.9,7,40.9,9s3.7,4.5,4.8,7.2c1.2,2.8,1.8,5.7,1.8,8.8s-0.6,6-1.8,8.8
		c-1.1,2.7-2.8,5.1-4.8,7.2c-2.1,2.1-4.5,3.7-7.2,4.8C31,46.9,28,47.5,25,47.5s-6-0.6-8.8-1.8c-2.7-1.1-5.1-2.8-7.2-4.8
		c-2.1-2.1-3.7-4.5-4.8-7.2C3,31,2.4,28,2.4,25s0.6-6,1.8-8.8C5.3,13.5,7,11.1,9,9.1s4.5-3.7,7.2-4.8C19,3,22,2.4,25,2.4 M25,0
		C11.2,0,0,11.2,0,25s11.2,25,25,25s25-11.2,25-25S38.8,0,25,0L25,0z"/>
</g>
<g>
	<path class="st1" d="M25.8,34.9h-5.2l-4.4-7.5h-0.1l-4.3,7.5H7l6.6-10.6l-6.2-9.9h5.2l4,6.9h0.1l4-6.9h4.8l-6.3,10L25.8,34.9z"/>
	<path class="st1" d="M37.1,32.3H37c-0.1,0.4-0.3,0.8-0.6,1.2c-0.3,0.4-0.6,0.7-0.9,0.9c-0.4,0.3-0.8,0.5-1.2,0.6
		c-0.5,0.1-0.9,0.2-1.4,0.2c-2,0-3.4-0.7-4.4-2.1c-1-1.4-1.5-3.4-1.5-6c0-2.6,0.5-4.6,1.5-6c1-1.4,2.5-2.1,4.4-2.1
		c1,0,1.9,0.3,2.7,0.8c0.8,0.5,1.3,1.3,1.5,2.1h0.1v-8.9h4.3v21.7h-4.3V32.3z M34.3,31.7c0.8,0,1.5-0.2,2-0.6c0.5-0.4,0.8-1,0.8-1.7
		v-4.5c0-0.7-0.3-1.3-0.8-1.7c-0.5-0.4-1.2-0.6-2-0.6c-0.8,0-1.5,0.3-2,0.9c-0.5,0.6-0.8,1.4-0.8,2.3v2.7c0,1,0.3,1.8,0.8,2.3
		C32.8,31.4,33.5,31.7,34.3,31.7z"/>
</g>
</svg>
