<?xml version="1.0" encoding="utf-8"?>
<!-- Generator: Adobe Illustrator 22.0.1, SVG Export Plug-In . SVG Version: 6.00 Build 0)  -->
<svg version="1.1" id="Capa_1" xmlns="http://www.w3.org/2000/svg" xmlns:xlink="http://www.w3.org/1999/xlink" x="0px" y="0px"
	 viewBox="0 0 50 50" style="enable-background:new 0 0 50 50;" xml:space="preserve">
<style type="text/css">
	.st0{fill:#263364;}
	.st1{fill:#C9E1F6;}
</style>
<g>
	<path class="st0" d="M25,48.8c-6.3,0-12.3-2.5-16.8-7s-7-10.5-7-16.8s2.5-12.3,7-16.8s10.5-7,16.8-7s12.3,2.5,16.8,7s7,10.5,7,16.8
		s-2.5,12.3-7,16.8S31.3,48.8,25,48.8z"/>
	<path class="st1" d="M25,2.4c3,0,6,0.6,8.8,1.8C36.5,5.3,38.9,7,40.9,9s3.7,4.5,4.8,7.2c1.2,2.8,1.8,5.7,1.8,8.8s-0.6,6-1.8,8.8
		c-1.1,2.7-2.8,5.1-4.8,7.2c-2.1,2.1-4.5,3.7-7.2,4.8C31,46.9,28,47.5,25,47.5s-6-0.6-8.8-1.8c-2.7-1.1-5.1-2.8-7.2-4.8
		c-2.1-2.1-3.7-4.5-4.8-7.2C3,31,2.4,28,2.4,25s0.6-6,1.8-8.8C5.3,13.5,7,11.1,9,9.1s4.5-3.7,7.2-4.8C19,3,22,2.4,25,2.4 M25,0
		C11.2,0,0,11.2,0,25s11.2,25,25,25s25-11.2,25-25S38.8,0,25,0L25,0z"/>
</g>
<g>
	<path class="st1" d="M13.6,34.9V14.4H18v16.5h7.8v4H13.6z"/>
	<path class="st1" d="M28.9,34.9V19.5h4.3v3.3h0.1c0.1-0.4,0.2-0.8,0.4-1.2c0.2-0.4,0.5-0.8,0.8-1.1c0.3-0.3,0.7-0.6,1.2-0.7
		c0.4-0.2,1-0.3,1.6-0.3H38v4H37c-1.3,0-2.2,0.2-2.8,0.5c-0.6,0.3-0.9,0.9-0.9,1.8v9H28.9z"/>
</g>
</svg>
