<?xml version="1.0" encoding="utf-8"?>
<!-- Generator: Adobe Illustrator 22.0.1, SVG Export Plug-In . SVG Version: 6.00 Build 0)  -->
<svg version="1.1" id="Capa_1" xmlns="http://www.w3.org/2000/svg" xmlns:xlink="http://www.w3.org/1999/xlink" x="0px" y="0px"
	 viewBox="0 0 50 50" style="enable-background:new 0 0 50 50;" xml:space="preserve">
<style type="text/css">
	.st0{fill:#1F003F;}
	.st1{fill:#CB8EFF;}
	.st2{fill:#CA8DFE;}
</style>
<g>
	<path class="st0" d="M25,48.8c-6.3,0-12.3-2.5-16.8-7s-7-10.5-7-16.8s2.5-12.3,7-16.8s10.5-7,16.8-7s12.3,2.5,16.8,7s7,10.5,7,16.8
		s-2.5,12.3-7,16.8S31.3,48.8,25,48.8z"/>
	<path class="st1" d="M25,2.4c3,0,6,0.6,8.8,1.8C36.5,5.3,38.9,7,40.9,9s3.7,4.5,4.8,7.2c1.2,2.8,1.8,5.7,1.8,8.8s-0.6,6-1.8,8.8
		c-1.1,2.7-2.8,5.1-4.8,7.2c-2.1,2.1-4.5,3.7-7.2,4.8C31,46.9,28,47.5,25,47.5s-6-0.6-8.8-1.8c-2.7-1.1-5.1-2.8-7.2-4.8
		c-2.1-2.1-3.7-4.5-4.8-7.2C3,31,2.4,28,2.4,25s0.6-6,1.8-8.8C5.3,13.5,7,11.1,9,9.1s4.5-3.7,7.2-4.8C19,3,22,2.4,25,2.4 M25,0
		C11.2,0,0,11.2,0,25s11.2,25,25,25s25-11.2,25-25S38.8,0,25,0L25,0z"/>
</g>
<g>
	<defs>
		<rect id="SVGID_1_" x="-20.3" y="-20.3" width="22.7" height="22.7"/>
	</defs>
	<clipPath id="SVGID_2_">
		<use xlink:href="#SVGID_1_"  style="overflow:visible;"/>
	</clipPath>
</g>
<g>
	<g>
		<path class="st2" d="M21.7,34.9l-1.4-4.6h-6.5l-1.4,4.6H8.1l6.4-19.5h5.3l6.4,19.5H21.7z M17.1,19.2H17l-2.2,7.4h4.5L17.1,19.2z"
			/>
		<path class="st2" d="M34.8,35.2c-1.1,0-2.1-0.2-3-0.5c-0.9-0.4-1.6-0.9-2.2-1.5c-0.6-0.7-1.1-1.5-1.4-2.4c-0.3-1-0.5-2-0.5-3.2
			c0-1.2,0.1-2.2,0.4-3.2c0.3-0.9,0.7-1.8,1.3-2.4s1.3-1.2,2.2-1.6c0.9-0.4,1.8-0.5,2.9-0.5c1.2,0,2.3,0.2,3.1,0.6
			c0.9,0.4,1.6,1,2.1,1.7c0.5,0.7,1,1.5,1.2,2.4s0.4,1.9,0.4,2.8v1.2H32v0.2c0,1,0.3,1.7,0.8,2.3c0.5,0.6,1.3,0.8,2.5,0.8
			c0.9,0,1.6-0.2,2.1-0.5c0.5-0.3,1-0.8,1.5-1.2l2.1,2.6c-0.7,0.8-1.5,1.4-2.6,1.8S36.1,35.2,34.8,35.2z M34.7,22.9
			c-0.8,0-1.5,0.3-2,0.8C32.3,24.3,32,25,32,25.9v0.2h5.2v-0.3c0-0.9-0.2-1.6-0.6-2.2C36.2,23.2,35.5,22.9,34.7,22.9z"/>
	</g>
</g>
</svg>
