<?xml version="1.0" encoding="utf-8"?>
<!-- Generator: Adobe Illustrator 22.0.1, SVG Export Plug-In . SVG Version: 6.00 Build 0)  -->
<svg version="1.1" id="Capa_1" xmlns="http://www.w3.org/2000/svg" xmlns:xlink="http://www.w3.org/1999/xlink" x="0px" y="0px"
	 viewBox="0 0 50 50" style="enable-background:new 0 0 50 50;" xml:space="preserve">
<style type="text/css">
	.st0{fill:#2A4997;}
	.st1{fill:#76C8DA;}
</style>
<circle class="st0" cx="25" cy="25" r="25"/>
<g>
	<path class="st1" d="M10.5,34.9V14.4h9.7c1,0,1.8,0.2,2.6,0.5c0.8,0.3,1.4,0.8,1.9,1.3c0.5,0.6,1,1.3,1.2,2.1
		c0.3,0.8,0.4,1.7,0.4,2.7c0,1-0.1,1.9-0.4,2.7c-0.3,0.8-0.7,1.5-1.2,2.1c-0.5,0.6-1.2,1-1.9,1.3s-1.6,0.5-2.6,0.5h-5.2v7.4H10.5z
		 M14.9,23.6h4.7c0.7,0,1.2-0.2,1.6-0.5c0.4-0.3,0.6-0.8,0.6-1.5v-1.3c0-0.7-0.2-1.2-0.6-1.5c-0.4-0.3-0.9-0.5-1.6-0.5h-4.7V23.6z"
		/>
	<path class="st1" d="M34.2,35.2c-1.5,0-2.7-0.2-3.8-0.7c-1-0.5-1.9-1.2-2.7-2l2.5-2.6c0.5,0.6,1.2,1.1,1.8,1.4
		c0.7,0.4,1.4,0.5,2.3,0.5c0.9,0,1.5-0.1,1.8-0.4c0.3-0.3,0.5-0.6,0.5-1.1c0-0.7-0.5-1.2-1.6-1.3l-1.7-0.2c-3.5-0.4-5.2-2-5.2-4.7
		c0-0.7,0.1-1.4,0.4-2c0.3-0.6,0.7-1.1,1.2-1.6c0.5-0.4,1.1-0.8,1.9-1c0.7-0.2,1.6-0.4,2.5-0.4c0.8,0,1.5,0.1,2.1,0.2
		c0.6,0.1,1.2,0.3,1.6,0.5c0.5,0.2,0.9,0.5,1.3,0.8c0.4,0.3,0.8,0.6,1.2,1L38,24.1c-0.5-0.5-1-0.9-1.7-1.2c-0.6-0.3-1.2-0.4-1.9-0.4
		c-0.7,0-1.3,0.1-1.6,0.4c-0.3,0.2-0.5,0.5-0.5,0.9c0,0.4,0.1,0.7,0.3,1c0.2,0.2,0.6,0.4,1.3,0.5l1.7,0.2c3.4,0.4,5.1,2,5.1,4.6
		c0,0.7-0.2,1.4-0.5,2.1c-0.3,0.6-0.8,1.2-1.3,1.6c-0.6,0.5-1.3,0.8-2.1,1.1C36.1,35.1,35.2,35.2,34.2,35.2z"/>
</g>
<path class="st1" d="M25,2.4c3,0,6,0.6,8.8,1.8C36.5,5.3,38.9,7,40.9,9s3.7,4.5,4.8,7.2c1.2,2.8,1.8,5.7,1.8,8.8s-0.6,6-1.8,8.8
	c-1.1,2.7-2.8,5.1-4.8,7.2c-2.1,2.1-4.5,3.7-7.2,4.8C31,46.9,28,47.5,25,47.5s-6-0.6-8.8-1.8c-2.7-1.1-5.1-2.8-7.2-4.8
	c-2.1-2.1-3.7-4.5-4.8-7.2C3,31,2.4,28,2.4,25s0.6-6,1.8-8.8C5.3,13.5,7,11.1,9,9.1s4.5-3.7,7.2-4.8C19,3,22,2.4,25,2.4 M25,0
	C11.2,0,0,11.2,0,25s11.2,25,25,25s25-11.2,25-25S38.8,0,25,0L25,0z"/>
</svg>
