<svg id="Group_17" data-name="Group 17" xmlns="http://www.w3.org/2000/svg" viewBox="0 0 65 65">
  <defs>
    <style>
      .cls-1 {
        fill: #fff;
      }

      .cls-2 {
        fill: #0084b1;
      }
    </style>
  </defs>
  <g id="Group_99" data-name="Group 99" transform="translate(0 0)">
    <g id="Group_16" data-name="Group 16" transform="translate(15.659 13.303)">
      <path id="Path_18" data-name="Path 18" class="cls-1" d="M95.783,81.8A4.155,4.155,0,1,1,91.6,85.945,4.17,4.17,0,0,1,95.783,81.8Zm0,0" transform="translate(-91.6 -81.8)"/>
      <path id="Path_19" data-name="Path 19" class="cls-1" d="M100.617,164.993H95.746a1.149,1.149,0,0,1-1.146-1.146v-20.8a1.149,1.149,0,0,1,1.146-1.146h4.871a1.149,1.149,0,0,1,1.146,1.146v20.782a1.142,1.142,0,0,1-1.146,1.165Zm0,0" transform="translate(-94.027 -130.42)"/>
      <path id="Path_20" data-name="Path 20" class="cls-1" d="M178.348,146.789a7.891,7.891,0,0,0-7.889-7.889h-1.242a6.978,6.978,0,0,0-5.749,3,6.591,6.591,0,0,0-.382.611h-.057v-2.56a.473.473,0,0,0-.478-.477h-6.074a.473.473,0,0,0-.478.477V162.07a.473.473,0,0,0,.478.478h6.208a.473.473,0,0,0,.478-.478V149.291a4.04,4.04,0,0,1,3.973-4.069,3.931,3.931,0,0,1,2.884,1.184,4.03,4.03,0,0,1,1.184,2.846v12.836a.473.473,0,0,0,.478.478h6.227a.473.473,0,0,0,.478-.478l-.038-15.3Zm0,0" transform="translate(-143.699 -127.993)"/>
    </g>
    <rect id="Rectangle_103" data-name="Rectangle 103" class="cls-2" width="65" height="65"/>
  </g>
  <g id="Group_16-2" data-name="Group 16" transform="translate(15.659 13.303)">
    <path id="Path_18-2" data-name="Path 18" class="cls-1" d="M95.783,81.8A4.155,4.155,0,1,1,91.6,85.945,4.17,4.17,0,0,1,95.783,81.8Zm0,0" transform="translate(-91.6 -81.8)"/>
    <path id="Path_19-2" data-name="Path 19" class="cls-1" d="M100.617,164.993H95.746a1.149,1.149,0,0,1-1.146-1.146v-20.8a1.149,1.149,0,0,1,1.146-1.146h4.871a1.149,1.149,0,0,1,1.146,1.146v20.782a1.142,1.142,0,0,1-1.146,1.165Zm0,0" transform="translate(-94.027 -130.42)"/>
    <path id="Path_20-2" data-name="Path 20" class="cls-1" d="M178.348,146.789a7.891,7.891,0,0,0-7.889-7.889h-1.242a6.978,6.978,0,0,0-5.749,3,6.591,6.591,0,0,0-.382.611h-.057v-2.56a.473.473,0,0,0-.478-.477h-6.074a.473.473,0,0,0-.478.477V162.07a.473.473,0,0,0,.478.478h6.208a.473.473,0,0,0,.478-.478V149.291a4.04,4.04,0,0,1,3.973-4.069,3.931,3.931,0,0,1,2.884,1.184,4.03,4.03,0,0,1,1.184,2.846v12.836a.473.473,0,0,0,.478.478h6.227a.473.473,0,0,0,.478-.478l-.038-15.3Zm0,0" transform="translate(-143.699 -127.993)"/>
  </g>
</svg>
