<?xml version="1.0" encoding="utf-8"?>
<!-- Generator: Adobe Illustrator 24.0.2, SVG Export Plug-In . SVG Version: 6.00 Build 0)  -->
<svg version="1.1" id="Layer_1" xmlns="http://www.w3.org/2000/svg" xmlns:xlink="http://www.w3.org/1999/xlink" x="0px" y="0px"
	 viewBox="0 0 63.1 63.1" style="enable-background:new 0 0 63.1 63.1;" xml:space="preserve">
<style type="text/css">
	.st0{fill:#FFFFFF;}
</style>
<g id="Group_89" transform="translate(-0.05 -0.005)">
	<path id="Path_24" class="st0" d="M24.3,32.1c0.9-0.7,2-1.1,3.1-1.1c0.2,0,0.4,0,0.6,0c1.9,0,1.9,0,2.1-1.9c0.3-2.1,0.5-4.3,1-6.4
		c0.3-2,1.8-3.6,3.8-4.1c0,0.4,0,0.8-0.1,1.1c-0.5,3.5-0.9,7-1.4,10.4c-0.1,0.8,0.1,0.9,0.8,0.9c2.9,0,5.8,0,8.9,0
		c-1.3,0.8-2.8,1.2-4.3,1.2c-1.6,0-3.3,0-4.9,0c-0.6,0-0.8,0.2-0.9,0.8c-0.4,3.4-0.9,6.8-1.4,10.2c-0.2,2.6-1,5.1-2.3,7.3
		c-1.6,2.6-4.3,4.4-7.4,4.8c-0.1,0-0.3,0-0.4,0h-0.4c0-0.1-0.1-0.1-0.2-0.2c0.5-0.5,1-1,1.6-1.4c3.4-1.8,4.8-4.9,5.4-8.5
		c0.7-4.1,1.1-8.3,1.7-12.4c0.1-0.6-0.3-0.7-0.7-0.7c-1.4,0-2.9,0-4.3,0C24.5,32.2,24.4,32.2,24.3,32.1z"/>
	<path id="Path_25" class="st0" d="M31.6,18.3c0.2-1.1,0.6-2.2,1-3.2c1.8-4.4,6.1-7.4,10.8-7.5c3.1-0.1,6,1.1,8.2,3.3
		c2.7,2.4,4.2,6,3.9,9.6c-0.1,2.6,0,5.2,0,7.7l-0.2,0.1c-0.3-0.3-0.7-0.6-1-0.9c-1.4-1.1-2.1-2.8-2.1-4.6c0-1.7,0-3.4-0.1-5.1
		c-0.2-2.6-1.4-5-3.3-6.8C46,8,41.4,8,38.5,10.8c-0.3,0.3-0.7,0.7-0.9,1.1c-0.7,0.9-1.1,2-1.7,3c-0.3,0.5-0.7,1-1.1,1.4
		C33.8,17.1,32.8,17.6,31.6,18.3z"/>
	<path id="Path_26" class="st0" d="M19.1,55.5c-3.8,0-7.4-1.9-9.4-5.2c-2.8-4-2.8-9.3,0-13.3c2.1-3.4,5.8-5.4,9.8-5.4
		c0.1,0.6-0.4,1.2-1,1.3C14,34,12,37.2,11.2,41.4c-0.7,3.5,0.2,7.2,2.5,9.9c1,1.2,2.3,2.2,3.7,2.7C18.2,54.2,18.8,54.7,19.1,55.5z"
		/>
</g>
</svg>
