<?xml version="1.0" standalone="no"?>
<!DOCTYPE svg PUBLIC "-//W3C//DTD SVG 20010904//EN"
 "http://www.w3.org/TR/2001/REC-SVG-20010904/DTD/svg10.dtd">
<svg version="1.0" xmlns="http://www.w3.org/2000/svg"
 width="700.000000pt" height="700.000000pt" viewBox="0 0 700.000000 700.000000"
 preserveAspectRatio="xMidYMid meet">
<metadata>
Created by potrace 1.11, written by Peter Selinger 2001-2013
</metadata>
<g transform="translate(0.000000,700.000000) scale(0.100000,-0.100000)"
fill="#000000" stroke="none">
<path d="M5108 6995 c-2 -2 -28 -6 -59 -9 -31 -4 -67 -9 -80 -12 -13 -3 -40
-8 -59 -11 -72 -11 -301 -93 -406 -146 -347 -174 -617 -444 -793 -792 -90
-181 -225 -585 -194 -585 5 0 24 11 43 24 19 12 67 40 105 61 123 66 268 167
330 229 77 78 128 153 211 312 173 332 266 453 448 579 174 121 384 188 591
189 219 1 361 -36 550 -143 96 -55 261 -203 358 -322 100 -122 224 -346 268
-481 68 -211 76 -282 84 -723 9 -518 11 -537 47 -660 52 -180 115 -266 350
-482 59 -54 88 -61 88 -19 1 11 0 125 -1 251 0 127 0 372 1 545 2 173 3 371 3
440 1 154 -5 227 -33 354 -52 237 -146 447 -297 660 -71 100 -292 322 -399
402 -43 32 -81 62 -84 65 -7 8 -142 86 -198 114 -226 113 -447 162 -729 163
-78 0 -143 -1 -145 -3z"/>
<path d="M3935 5374 c-186 -67 -325 -183 -416 -344 -32 -57 -65 -143 -75 -195
-4 -22 -8 -44 -10 -50 -1 -5 -4 -21 -7 -35 -3 -14 -13 -61 -22 -105 -9 -44
-19 -89 -21 -100 -2 -11 -6 -40 -9 -64 -3 -25 -7 -54 -10 -65 -5 -25 -13 -79
-21 -144 -3 -26 -7 -58 -9 -72 -3 -21 -13 -92 -41 -305 -3 -22 -7 -51 -9 -65
-2 -14 -7 -52 -10 -85 -9 -82 -32 -126 -77 -148 -30 -15 -70 -19 -218 -23
-191 -4 -255 -15 -363 -60 -73 -31 -169 -93 -161 -105 3 -5 9 -7 14 -4 7 5
261 7 596 5 150 0 160 -12 140 -175 -3 -33 -11 -87 -16 -120 -5 -33 -12 -80
-15 -105 -3 -25 -8 -56 -10 -70 -3 -14 -7 -50 -10 -80 -3 -30 -8 -64 -10 -75
-2 -11 -7 -47 -10 -80 -3 -33 -8 -67 -10 -75 -2 -8 -6 -42 -10 -75 -6 -63 -23
-202 -30 -245 -2 -14 -9 -65 -15 -115 -12 -97 -12 -97 -36 -260 -9 -60 -17
-119 -19 -130 -9 -67 -54 -346 -60 -370 -1 -5 -5 -28 -9 -50 -19 -99 -72 -280
-112 -382 -102 -259 -213 -417 -423 -601 -26 -23 -115 -83 -233 -157 -35 -22
-101 -75 -146 -119 -82 -79 -83 -81 -63 -97 49 -40 326 12 521 98 266 117 487
303 652 548 143 212 297 612 333 865 2 14 6 39 9 56 7 38 13 85 22 179 3 39 8
72 9 75 2 3 6 29 10 59 4 30 8 62 10 72 2 9 6 39 10 66 3 26 12 91 20 143 18
123 25 172 30 212 2 18 7 49 10 68 6 37 8 52 25 190 12 90 18 134 26 190 3 19
7 49 9 65 2 17 6 53 10 80 3 28 8 68 11 90 16 128 34 235 44 256 25 54 24 54
455 56 376 1 533 6 566 17 8 3 30 7 49 10 38 6 148 37 195 56 52 20 175 83
175 89 0 3 -306 6 -679 6 -654 0 -680 1 -700 19 -27 25 -27 68 -1 262 12 82
22 163 24 179 2 17 9 68 16 115 6 47 13 97 15 113 11 81 27 195 30 217 2 14 9
63 15 110 17 135 21 163 25 190 2 14 7 52 11 85 3 33 8 67 9 76 2 9 6 40 10
69 4 29 8 60 10 69 1 9 6 45 10 81 4 36 9 68 11 72 9 15 16 158 8 157 -5 0
-27 -7 -49 -15z"/>
<path d="M1627 3484 c-1 -1 -27 -4 -57 -8 -121 -14 -149 -19 -260 -48 -251
-65 -473 -181 -672 -352 -275 -236 -543 -693 -594 -1011 -3 -22 -7 -42 -9 -45
-2 -3 -7 -33 -10 -65 -4 -33 -9 -69 -11 -80 -6 -29 -6 -279 0 -307 3 -12 8
-46 11 -75 24 -231 124 -491 281 -735 134 -207 261 -345 428 -465 251 -179
527 -280 799 -290 155 -6 158 -5 108 63 -52 73 -84 94 -225 149 -435 167 -809
670 -891 1195 -4 25 -9 54 -12 65 -14 59 -12 367 3 470 47 333 166 653 318
860 56 75 220 245 237 245 4 0 14 6 21 13 61 59 264 160 403 202 143 42 176
57 207 96 30 37 51 99 39 116 -5 6 -107 13 -114 7z"/>
</g>
</svg>
